<svg preserveAspectRatio="none" width="100%" height="100%" overflow="visible" style="display: block;" viewBox="0 0 20 20" fill="none" xmlns="http://www.w3.org/2000/svg">
<g id="star_shine">
<mask id="mask0_258_3704" style="mask-type:alpha" maskUnits="userSpaceOnUse" x="0" y="0" width="20" height="20">
<rect id="Bounding box" width="20" height="20" fill="var(--fill-0, #D9D9D9)"/>
</mask>
<g mask="url(#mask0_258_3704)">
<path id="star_shine_2" d="M15.25 12.125C15.3982 11.9722 15.5741 11.8958 15.7777 11.8958C15.9815 11.8958 16.159 11.9708 16.3104 12.1208L17.5021 13.3208C17.6535 13.4708 17.7292 13.6458 17.7292 13.8458C17.7292 14.0458 17.6533 14.2222 17.5015 14.375C17.3497 14.5278 17.1726 14.6042 16.9702 14.6042C16.7678 14.6042 16.5919 14.5285 16.4423 14.3771L15.2452 13.1854C15.0956 13.034 15.0208 12.8565 15.0208 12.6527C15.0208 12.4491 15.0972 12.2732 15.25 12.125ZM16 3.125C16.1528 3.27778 16.2292 3.45604 16.2292 3.65979C16.2292 3.8634 16.1528 4.03931 16 4.1875L14.81 5.3775C14.6589 5.52861 14.4815 5.60417 14.2777 5.60417C14.0741 5.60417 13.8982 5.52778 13.75 5.375C13.5972 5.22681 13.5208 5.0509 13.5208 4.84729C13.5208 4.64354 13.5958 4.46597 13.7458 4.31458L14.9458 3.12292C15.0958 2.97153 15.2708 2.89583 15.4708 2.89583C15.6708 2.89583 15.8472 2.97222 16 3.125ZM4 3.125C4.14819 2.97222 4.3241 2.89583 4.52771 2.89583C4.73146 2.89583 4.90903 2.97083 5.06042 3.12083L6.25208 4.32083C6.40347 4.47083 6.47917 4.64583 6.47917 4.84583C6.47917 5.04583 6.40278 5.22222 6.25 5.375C6.09722 5.52778 5.91896 5.60417 5.71521 5.60417C5.5116 5.60417 5.33569 5.52778 5.1875 5.375L3.9975 4.185C3.84639 4.03389 3.77083 3.85646 3.77083 3.65271C3.77083 3.4491 3.84722 3.27319 4 3.125ZM4.75 12.125C4.90278 12.2778 4.97917 12.456 4.97917 12.6598C4.97917 12.8634 4.90278 13.0393 4.75 13.1875L3.56 14.3775C3.40889 14.5286 3.23146 14.6042 3.02771 14.6042C2.8241 14.6042 2.64819 14.5278 2.5 14.375C2.34722 14.2268 2.27083 14.0509 2.27083 13.8473C2.27083 13.6435 2.34583 13.466 2.49583 13.3146L3.69583 12.1229C3.84583 11.9715 4.02083 11.8958 4.22083 11.8958C4.42083 11.8958 4.59722 11.9722 4.75 12.125ZM7.33333 13.875L10.0104 12.2917L12.6875 13.875L11.9792 10.875L14.2917 8.89333L11.2292 8.625L10 5.77083L8.77979 8.62125L5.70833 8.89583L8.04167 10.875L7.33333 13.875ZM10 14.0417L6.58333 16.0833C6.43056 16.1667 6.28076 16.2022 6.13396 16.19C5.98715 16.1779 5.85868 16.1293 5.74854 16.0442C5.6384 15.9592 5.55556 15.8438 5.5 15.6979C5.44444 15.5521 5.4375 15.4028 5.47917 15.25L6.375 11.4375L3.35417 8.875C3.23375 8.76167 3.15854 8.63264 3.12854 8.48792C3.0984 8.34319 3.10417 8.20139 3.14583 8.0625C3.1875 7.92361 3.26389 7.80903 3.375 7.71875C3.48611 7.62847 3.625 7.57639 3.79167 7.5625L7.75 7.20833L9.3125 3.58333C9.38194 3.43056 9.48049 3.31597 9.60812 3.23958C9.73576 3.16319 9.86639 3.125 10 3.125C10.1338 3.125 10.2644 3.16319 10.3919 3.23958C10.5195 3.31597 10.6181 3.43056 10.6875 3.58333L12.25 7.22917L16.2083 7.5625C16.375 7.57639 16.5139 7.63194 16.625 7.72917C16.7361 7.82639 16.8125 7.94444 16.8542 8.08333C16.8958 8.22222 16.9005 8.36153 16.8681 8.50125C16.8356 8.64097 16.7546 8.76556 16.625 8.875L13.625 11.4375L14.5208 15.25C14.5625 15.4028 14.5556 15.5521 14.5 15.6979C14.4444 15.8438 14.3616 15.9592 14.2515 16.0442C14.1413 16.1293 14.0128 16.1779 13.866 16.19C13.7192 16.2022 13.5694 16.1667 13.4167 16.0833L10 14.0417Z" fill="var(--fill-0, white)"/>
</g>
</g>
</svg>
